<svg xmlns="http://www.w3.org/2000/svg" version="1.1" xmlns:xlink="http://www.w3.org/1999/xlink" xmlns:svgjs="http://svgjs.dev/svgjs" width="100%" height="100%" viewBox="0 0 1000 600"><rect width="1000" height="600" x="0" y="0" fill="#d2302c"/><g><circle r="166.66666666666666" cx="426.7076212565104" cy="448.929709515014" fill="#f7f7f9" transform="matrix(0.4806937928528782,0,0,0.4806937928528782,0,84.20227912676735)"/><path d="M336.312719254775 523.9297192337231L336.312719254775 523.9297192337231Q316.917178943416 523.9297192337231 308.26107547616806 517.7970899976051Q299.6049720089201 511.6351180378693 299.0768029837999 497.5212679777124L299.0768029837999 497.5212679777124Q298.57797668229745 489.6867607717625 298.7246903003864 483.29004702308436Q298.8714039184753 476.89333327440625 299.39957294359556 468.9414551739852L299.39957294359556 468.9414551739852L313.3080239384279 468.9414551739852Q312.6918267424543 476.89333327440625 312.75051218968986 484.72784048035606Q312.80919763692543 492.56234768630594 313.3080239384279 499.8980285907533L313.3080239384279 499.8980285907533Q313.8361929635481 505.85460148516466 319.0005123202791 508.7008456760903Q324.13548895339227 511.54708986701587 336.0192920185971 511.54708986701587L336.0192920185971 511.54708986701587Q347.6683532948596 511.54708986701587 352.5685881390305 508.7008456760903Q357.4688229832014 505.85460148516466 358.085020179175 499.8980285907533L358.085020179175 499.8980285907533Q358.61318920429517 492.56234768630594 358.5545037570596 487.1339438170148Q358.495818309824 481.73488267134155 358.085020179175 473.69497640006716L358.085020179175 473.69497640006716Q357.6742220485259 467.298262651389 354.73994968674697 462.95553955595614Q351.805677324968 458.6128164605232 341.68243767683055 457.2923938977227L341.68243767683055 457.2923938977227L326.9230476970823 454.5928633248861Q315.27398642081977 452.62690084249414 309.4347844208796 448.87103221941703Q303.62492514455727 445.11516359634 301.5122490440764 439.1879334255464Q299.39957294359556 433.2313605311351 298.9887748129465 424.69262795835834L298.9887748129465 424.69262795835834Q298.6660048531508 419.00013957650714 298.78337574762196 412.5740831042112Q298.8714039184753 406.11868390829744 299.19417387827104 400.0153973957972L299.19417387827104 400.0153973957972Q299.39957294359556 385.9895755064937 307.7915918982834 379.9743171648468Q316.21295357658903 373.92971609958215 336.0192920185971 373.92971609958215L336.0192920185971 373.92971609958215Q354.2704661088623 373.92971609958215 362.5744568926968 380.0036598884646Q370.8784476765313 386.10694640096483 371.4066167016515 400.13276829026836L371.4066167016515 400.13276829026836Q371.7000439378294 404.97431768720367 371.612015766976 412.1632849735621Q371.49464487250486 419.3229095363028 371.201217636327 426.9520176769281L371.201217636327 426.9520176769281L357.14605302340567 426.9520176769281Q357.8796211138505 419.6163367724807 357.8796211138505 412.3099985916511Q357.8796211138505 404.97431768720367 357.35145208873024 397.7560076772274L357.35145208873024 397.7560076772274Q356.94065395808116 391.88746295366946 351.9523909430569 389.0999042099794Q346.9347852044149 386.3123454662894 335.6965220588014 386.3123454662894L335.6965220588014 386.3123454662894Q324.0474607825389 386.3123454662894 319.0298550438969 389.0999042099794Q314.0415920288726 391.88746295366946 313.5134230037524 397.7560076772274L313.5134230037524 397.7560076772274Q313.01459670224995 404.35812049123007 313.0732821494856 411.16563237055726Q313.10262487310337 417.97314424988446 313.5134230037524 424.69262795835834L313.5134230037524 424.69262795835834Q313.9242211344015 432.2043652045125 316.77046532532705 436.1949756165319Q319.6167095162527 440.1562433049335 330.23877546589256 441.38863769688066L330.23877546589256 441.38863769688066L344.6753954858451 443.6773701390683Q356.3244567621076 445.40859083251786 362.22234420928334 449.3405157973017Q368.09088893284127 453.24309803846774 370.20356503332215 459.2876991037324Q372.316241133803 465.33230016899705 372.6390110935987 473.69497640006716L372.6390110935987 473.69497640006716Q373.1378373951011 481.32408454069247 373.0498092242477 486.0482630431566Q372.9324383297766 490.80178426923857 372.4336120282741 497.5212679777124L372.4336120282741 497.5212679777124Q371.7000439378294 511.6351180378693 363.30802498314154 517.7970899976051Q354.8866633048359 523.9297192337231 336.312719254775 523.9297192337231ZM425.338542711149 522.5799539473048L425.338542711149 522.5799539473048L389.24699266126765 522.5799539473048L389.24699266126765 375.27948138600044L425.8667117362692 375.27948138600044Q445.05685298230367 375.27948138600044 453.6542710023161 381.47079606935404Q462.2810317459463 387.6621107527077 462.57445898212416 401.9813598781891L462.57445898212416 401.9813598781891Q463.10262800724433 418.70671234032926 463.2493416253333 433.75952955625536Q463.42539796704 448.81234677218146 463.2493416253333 463.8945067117254Q463.10262800724433 478.9473239276515 462.57445898212416 495.760704560645L462.57445898212416 495.760704560645Q462.2810317459463 510.1092964097442 453.6249282786983 516.3299538167156Q444.9394820878325 522.5799539473048 425.338542711149 522.5799539473048ZM425.8667117362692 388.4837070140058L403.56624178674906 388.4837070140058L403.56624178674906 509.3757283192994L425.338542711149 509.3757283192994Q437.42774484167836 509.3757283192994 442.7681205401161 506.3827705102849Q448.1378389621716 503.38981270127033 448.25520985664275 497.3158689123879L448.25520985664275 497.3158689123879Q449.7810314847678 448.9297176666526 448.25520985664275 400.3381673555929L448.25520985664275 400.3381673555929Q448.1378389621716 394.26422356671037 442.8268059873517 391.3592939285492Q437.5157730125318 388.4837070140058 425.8667117362692 388.4837070140058L425.8667117362692 388.4837070140058ZM516.3303286499149 523.9297192337231L516.3303286499149 523.9297192337231Q497.4629573636761 523.9297192337231 489.30568019793054 517.8264327212229Q481.14840303218506 511.75248893234044 480.6495767306826 497.7266670430369L480.6495767306826 497.7266670430369Q478.7716424191441 448.9297176666526 480.6495767306826 400.13276829026836L480.6495767306826 400.13276829026836Q481.14840303218506 387.339340792912 489.3937083687839 380.67854253167377Q497.66835642900065 374.0177442704355 516.1249295845903 374.0177442704355L516.1249295845903 374.0177442704355Q535.1976999361536 374.0177442704355 543.9124888506371 380.1210307829358Q552.6566204887386 386.19497457181825 553.0674186193876 400.2207964611217L553.0674186193876 400.2207964611217Q553.2728176847122 403.6245524007853 553.2728176847122 408.64215813942735Q553.2728176847122 413.6304211544516 553.0967613430055 418.64802689309363Q552.9500477249164 423.6656326317357 552.8620195540632 427.1574167422527L552.8620195540632 427.1574167422527L538.513427704964 427.1574167422527Q538.7188267702884 420.46727575739664 538.777512217524 412.5153976569756Q538.8068549411419 404.5635195565546 538.513427704964 397.87337857169854L538.513427704964 397.87337857169854Q538.3960568104928 391.68206388834494 533.4077937954685 388.98253331550825Q528.3901880568264 386.3123454662894 516.1249295845903 386.3123454662894L516.1249295845903 386.3123454662894Q504.88666643897693 386.3123454662894 500.0744597656594 388.98253331550825Q495.2915958159597 391.68206388834494 494.968825856164 397.87337857169854L494.968825856164 397.87337857169854Q493.32563333356774 448.9297176666526 494.968825856164 500.10342765607794L494.968825856164 500.10342765607794Q495.2915958159597 506.17737144496033 500.0744597656594 508.9062447414148Q504.88666643897693 511.6351180378693 516.3303286499149 511.6351180378693L516.3303286499149 511.6351180378693Q529.2411270417424 511.6351180378693 534.4347891220912 508.9062447414148Q539.6577939260578 506.17737144496033 539.9512211622357 500.10342765607794L539.9512211622357 500.10342765607794Q540.2739911220312 492.8557749224838 540.0099066094713 484.55178413864934Q539.7458220969111 476.24779335481486 539.4523948607332 469.0294833448386L539.4523948607332 469.0294833448386L554.0944139460103 469.0294833448386Q554.5932402475128 476.24779335481486 554.7106111419839 483.31938974670214Q554.7986393128372 490.3909861385895 554.2998130113349 497.7266670430369L554.2998130113349 497.7266670430369Q553.6836158153612 511.75248893234044 544.8514560064066 517.8264327212229Q536.0486389210696 523.9297192337231 516.3303286499149 523.9297192337231Z " fill="#d2302c" transform="matrix(0.4806937928528782,0,0,0.4806937928528782,0,84.20227912676735)"/><path d="M712.0671219749686 514.9115158332198L712.0671219749686 514.9115158332198Q693.8376678266623 514.9115158332198 685.7019810282503 509.14758857603977Q677.5662942298383 503.3560827195431 677.0698794421386 490.090776448234L677.0698794421386 490.090776448234Q676.6010432537555 482.72729043068824 676.7389362503388 476.71515577965835Q676.876829246922 470.70302112862845 677.3732440346217 463.22922071381606L677.3732440346217 463.22922071381606L690.4455001107142 463.22922071381606Q689.8663495250646 470.70302112862845 689.9215067236978 478.0665071461743Q689.9766639223312 485.42999316372 690.4455001107142 492.32464299288273L690.4455001107142 492.32464299288273Q690.941914898414 497.92309865416286 695.7957483781445 500.598222787878Q700.6220032585584 503.27334692159314 711.791335981802 503.27334692159314L711.791335981802 503.27334692159314Q722.7400399105125 503.27334692159314 727.3456659963931 500.598222787878Q731.9512920822738 497.92309865416286 732.5304426679235 492.32464299288273L732.5304426679235 492.32464299288273Q733.0268574556233 485.42999316372 732.9717002569898 480.3279522901396Q732.9165430583566 475.25349001587585 732.5304426679235 467.69695380311356L732.5304426679235 467.69695380311356Q732.1443422774904 461.6848191520836 729.3864823458252 457.6031864532193Q726.6286224141602 453.52155375435495 717.1140056499157 452.2805167851057L717.1140056499157 452.2805167851057L703.2419701936403 449.7432856479738Q692.2932662649298 447.8955194937582 686.8051250009164 444.3654587812269Q681.3445623362195 440.83539806869555 679.3589031854206 435.2645210067321Q677.3732440346217 429.66606534545195 676.9871436441886 421.6406929443065L676.9871436441886 421.6406929443065Q676.6837790517054 416.2904446768763 676.794093448972 410.25073142652974Q676.876829246922 404.1834395768666 677.1801938394051 398.44709091900313L677.1801938394051 398.44709091900313Q677.3732440346217 385.26452044564405 685.260723439184 379.6109075857306Q693.1757814430628 373.9297161265005 711.791335981802 373.9297161265005L711.791335981802 373.9297161265005Q728.9452247567589 373.9297161265005 736.7499683633711 379.6384861850472Q744.5547119699833 385.3748348429107 745.051126757683 398.55740531626975L745.051126757683 398.55740531626975Q745.3269127508495 403.10787420351716 745.2441769528996 409.8646310360966Q745.133862555633 416.59380926935944 744.8580765624664 423.7642450916887L744.8580765624664 423.7642450916887L731.6479274897906 423.7642450916887Q732.3373924727069 416.86959526252593 732.3373924727069 410.0025240326799Q732.3373924727069 403.10787420351716 731.8409776850071 396.32353877162103L731.8409776850071 396.32353877162103Q731.4548772945741 390.80781890829087 726.7665154107435 388.18785197320904Q722.0505749275961 385.5678850381272 711.4879713893189 385.5678850381272L711.4879713893189 385.5678850381272Q700.5392674606085 385.5678850381272 695.8233269774612 388.18785197320904Q691.1349650936305 390.80781890829087 690.6385503059307 396.32353877162103L690.6385503059307 396.32353877162103Q690.1697141175478 402.5287236178675 690.2248713161811 408.9269586593305Q690.2524499154977 415.3251937007935 690.6385503059307 421.6406929443065L690.6385503059307 421.6406929443065Q691.0246506963639 428.7008143693692 693.699774830079 432.4515038764337Q696.3748989637942 436.17461478418153 706.3583519164218 437.33291595548087L706.3583519164218 437.33291595548087L719.927022780214 439.4840467021797Q730.8757267089245 441.11118406186205 736.4190251715713 444.80671637029326Q741.9347450349014 448.4746700794079 743.9204041857004 454.1558615386379Q745.9060633364992 459.837052997868 746.2094279289823 467.69695380311356L746.2094279289823 467.69695380311356Q746.6782641173654 474.86738962544274 746.5955283194155 479.3075441154235Q746.4852139221489 483.77527720472096 746.0163777337658 490.090776448234L746.0163777337658 490.090776448234Q745.3269127508495 503.3560827195431 737.4394333462874 509.14758857603977Q729.5243753424086 514.9115158332198 712.0671219749686 514.9115158332198ZM790.6109728287903 514.8012014359532L790.6109728287903 514.8012014359532Q774.8084354203493 514.8012014359532 768.2998859816197 509.36821737057295Q761.8189151422067 503.93523330519275 761.322500354507 491.33181341748326L761.322500354507 491.33181341748326Q760.7433497688573 484.1613775951541 760.5502995736408 475.39138301245913Q760.3572493784243 466.6213884297641 760.5502995736408 457.68592225116925Q760.7433497688573 448.778034671891 761.322500354507 441.49728445229516L761.322500354507 441.49728445229516Q761.8189151422067 428.8938645645857 768.355043180253 423.4608804992055Q774.8911712182993 418.05547503314193 790.6109728287903 418.05547503314193L790.6109728287903 418.05547503314193Q806.5238246344978 418.05547503314193 812.8669024773276 423.4608804992055Q819.2099803201572 428.8938645645857 819.7063951078569 441.49728445229516L819.7063951078569 441.49728445229516Q820.2855456935066 448.69529887394106 820.4785958887231 457.46529345663606Q820.6716460839397 466.235288039331 820.4785958887231 475.1155970192926Q820.2855456935066 483.96832739993755 819.7063951078569 491.33181341748326L819.7063951078569 491.33181341748326Q819.2099803201572 503.85249750724284 812.8669024773276 509.34063877125635Q806.5238246344978 514.8012014359532 790.6109728287903 514.8012014359532ZM790.6109728287903 503.93523330519275L790.6109728287903 503.93523330519275Q799.5188604080685 503.93523330519275 803.3247071137663 501.75652395917734Q807.1029752201475 499.57781461316193 807.378761213314 494.5309309382148L807.378761213314 494.5309309382148Q808.3440121893968 479.41785851269015 808.3440121893968 466.42833823454754Q808.3440121893968 453.438817956405 807.378761213314 438.2981669315637L807.378761213314 438.2981669315637Q807.1029752201475 433.16854745866664 803.4074429117163 431.0449953112845Q799.711910603285 428.8938645645857 790.6109728287903 428.8938645645857L790.6109728287903 428.8938645645857Q781.4824564549788 428.8938645645857 777.759345547231 431.0449953112845Q774.036234639483 433.16854745866664 773.7328700469999 438.2981669315637L773.7328700469999 438.2981669315637Q772.8779334681838 453.438817956405 772.8227762695504 466.48349543318085Q772.7676190709171 479.5005943106401 773.7328700469999 494.5309309382148L773.7328700469999 494.5309309382148Q773.9259202422164 499.57781461316193 777.8696599444975 501.75652395917734Q781.7858210474619 503.93523330519275 790.6109728287903 503.93523330519275ZM852.166406503555 387.8017515827759L852.166406503555 513.6429002646539L839.5629866158456 513.6429002646539L839.5629866158456 387.8017515827759L852.166406503555 387.8017515827759ZM893.479148279898 514.8012014359532L893.479148279898 514.8012014359532Q882.5304443511876 514.8012014359532 877.1801960837573 509.94736795622265Q871.8575264156437 505.12111307580875 871.5817404224772 493.95178035256515L871.5817404224772 493.95178035256515Q871.1680614327274 486.0091437493697 871.0301684361442 476.5221055844418Q870.892275439561 467.00748882019724 871.0301684361442 457.21708606278617Q871.1680614327274 447.4266833053751 871.5817404224772 438.8773175172133L871.5817404224772 438.8773175172133Q871.8575264156437 427.6528275953364 877.3456676796573 422.8541513142392Q882.8062303443542 418.05547503314193 893.6721984751146 418.05547503314193L893.6721984751146 418.05547503314193Q901.7251494755767 418.05547503314193 906.3307755614574 420.50997037232383Q910.936401647338 422.99204431082245 914.3285693632861 428.1216637837195L914.3285693632861 428.1216637837195L916.8382219011014 428.1216637837195L916.8382219011014 387.8017515827759L929.2485915935943 387.8017515827759L929.2485915935943 513.6429002646539L916.8382219011014 513.6429002646539L916.8382219011014 504.7350126853757L914.0252047708029 504.7350126853757Q910.7433514521215 509.5612675657896 906.1377253662408 512.1812345008714Q901.5320992803601 514.8012014359532 893.479148279898 514.8012014359532ZM897.0643661910626 504.2385978976759L897.0643661910626 504.2385978976759Q911.7086024282042 504.2385978976759 916.8382219011014 495.41344611634764L916.8382219011014 495.41344611634764L916.8382219011014 437.4432303527475Q911.7913382261543 428.61807857141923 897.1746805883292 428.61807857141923L897.1746805883292 428.61807857141923Q890.3903451564331 428.61807857141923 887.3291206322849 430.79678791743464Q884.2678961081367 432.97549726345005 884.1851603101867 437.8293307431806L884.1851603101867 437.8293307431806Q883.5784311252204 452.3632525830556 883.6887455224869 467.33843201199704Q883.7714813204369 482.3136114409385 884.1851603101867 495.02734572591453L884.1851603101867 495.02734572591453Q884.3782105054032 499.77086480837846 887.3291206322849 502.00473135302724Q890.2800307591665 504.2385978976759 897.0643661910626 504.2385978976759ZM969.4030321986379 514.7184656380032L969.4030321986379 514.7184656380032Q957.5718130917946 514.7184656380032 951.8906216325646 510.05768235348927Q946.2370087726512 505.3968990689753 945.2441791972517 495.52376051361426L945.2441791972517 495.52376051361426Q945.1614433993018 493.56567996213204 945.0235504027185 491.63517800996647Q944.8580788068186 489.7046760578009 945.0511290020352 487.8569099035853L945.0511290020352 487.8569099035853Q945.7405939849514 479.22480831747356 950.4841130674154 473.35056666302694Q955.2276321498794 467.5039036078969 968.5205170205052 462.6500701281664L968.5205170205052 462.6500701281664Q973.9535010858854 460.6919895766842 979.9656357369151 459.14758801495174Q985.977770387945 457.6031864532193 991.8795906417083 456.1415206894368L991.8795906417083 456.1415206894368L991.8795906417083 438.2154311336137Q991.8795906417083 433.4719120511498 988.2943727305437 431.18288830786776Q984.7091548193791 428.8938645645857 975.801267240101 428.8938645645857L975.801267240101 428.8938645645857Q968.051680832122 428.8938645645857 964.025205331891 430.85194511606795Q959.99872983166 432.7824470682335 959.6126294412268 437.91206654113057L959.6126294412268 437.91206654113057Q959.4195792460102 440.3389832809958 959.4195792460102 444.86187356892657Q959.4195792460102 449.35718525754066 959.6126294412268 452.47356698032223L959.6126294412268 452.47356698032223L947.4780457419005 452.47356698032223Q947.2849955466838 450.0466502404569 947.0919453514673 446.1580677368092Q946.8988951562508 442.2694852331614 947.2022597487339 439.2909965069631L947.2022597487339 439.2909965069631Q947.671095937117 428.03892798576953 954.5105885676464 423.04720150945576Q961.3500811981759 418.05547503314193 976.2701034284839 418.05547503314193L976.2701034284839 418.05547503314193Q991.8795906417083 418.05547503314193 997.9468824913715 423.4608804992055Q1004.0141743410347 428.8938645645857 1004.0969101389846 441.30423425707863L1004.0969101389846 441.30423425707863L1004.0969101389846 513.6429002646539L991.8795906417083 513.6429002646539L991.8795906417083 504.7350126853757L989.1768879086766 504.7350126853757Q986.7499711688113 509.5612675657896 982.2546594801972 512.1536559015547Q977.7317691922665 514.7184656380032 969.4030321986379 514.7184656380032ZM972.4918353221028 504.2385978976759L972.4918353221028 504.2385978976759Q986.4741851756448 504.2385978976759 991.7968548437584 495.9098609040474L991.7968548437584 495.9098609040474L991.7968548437584 466.5110740324975Q987.1360715592444 467.5039036078969 982.2546594801972 468.80009777577953Q977.3456688018334 470.09629194366215 970.7543835651538 472.3301584883108L970.7543835651538 472.3301584883108Q962.8944827599082 475.25349001587585 960.2745158248265 479.03175812225703Q957.6545488897447 482.8100262286382 957.2684484993115 487.8569099035853L957.2684484993115 487.8569099035853Q957.3787628965781 489.3185756673678 957.4339200952114 491.0008702256835Q957.461498694528 492.71074338331584 957.6545488897447 494.5309309382148L957.6545488897447 494.5309309382148Q958.344013872661 499.1917142227288 962.3153321742586 501.7289453598607Q966.2866504758563 504.2385978976759 972.4918353221028 504.2385978976759ZM1051.7251511588406 514.8012014359532L1051.7251511588406 514.8012014359532Q1036.5845001339994 514.8012014359532 1031.2894090652026 509.7543177610061Q1026.0218965957222 504.7350126853757 1026.0218965957222 493.28989396896554L1026.0218965957222 493.28989396896554L1026.0218965957222 430.1624801331517L1016.7003300266941 430.1624801331517L1016.7003300266941 419.29651200239124L1026.2976825888886 419.29651200239124L1026.2976825888886 392.54527066523985L1038.6253164834316 392.54527066523985L1038.6253164834316 419.29651200239124L1059.9435737552028 419.29651200239124L1059.9435737552028 430.1624801331517L1038.515002086165 430.1624801331517L1038.515002086165 494.6412453354814Q1038.515002086165 499.96391500359505 1040.7488686308138 502.00473135302724Q1042.9827351754625 504.0455477024594 1052.0009371520073 504.0455477024594L1052.0009371520073 504.0455477024594Q1055.6964694604385 504.0455477024594 1057.6821286112374 503.9076547058761Q1059.6677877620364 503.7421831099762 1062.287754697118 503.65944731202626L1062.287754697118 503.65944731202626L1062.287754697118 514.029000655087Q1059.9435737552028 514.41510104552 1057.240871022171 514.6081512407366Q1054.5105896898226 514.8012014359532 1051.7251511588406 514.8012014359532ZM1098.3605626032975 514.8012014359532L1098.3605626032975 514.8012014359532Q1082.751075390073 514.8012014359532 1076.6837835404099 509.7543177610061Q1070.6164916907467 504.7350126853757 1070.1476555023637 493.28989396896554L1070.1476555023637 493.28989396896554Q1069.9270267078305 490.2838266434506 1069.8994481085138 486.5331371363861Q1069.8442909098803 482.8100262286382 1070.2303913003136 479.9970090983398L1070.2303913003136 479.9970090983398L1081.565195619457 479.9970090983398Q1081.3721454242404 484.4647421876372 1081.4273026228739 488.1878530953851Q1081.482459821507 491.91096400313296 1081.565195619457 494.5309309382148L1081.565195619457 494.5309309382148Q1081.6755100167236 499.8811792056451 1085.3158851265216 501.9219955550772Q1088.9562602363194 503.93523330519275 1098.3605626032975 503.93523330519275L1098.3605626032975 503.93523330519275Q1107.957915165492 503.93523330519275 1111.8740762684563 501.9219955550772Q1115.7902373714207 499.8811792056451 1116.093601963904 494.5309309382148L1116.093601963904 494.5309309382148Q1116.3693879570703 491.24907761953335 1116.479702354337 489.6495188591676Q1116.562438152287 488.0499600988019 1116.479702354337 485.0438927732869L1116.479702354337 485.0438927732869Q1116.1763377618538 480.1073234956064 1113.8597354192552 477.37704216325795Q1111.5431330766564 474.6743394302262 1103.765968069361 473.5160382589268L1103.765968069361 473.5160382589268L1092.4311637502176 470.896071323845Q1083.716326366156 469.0483051696294 1078.9452286843753 466.235288039331Q1074.2017096019113 463.42227090903265 1072.2712076497457 458.8993806211019Q1070.3407056975802 454.4040689324878 1069.9270267078305 447.50941910332506L1069.9270267078305 447.50941910332506Q1069.6512407146638 444.0345155894271 1070.4234414955301 439.8701470926128L1070.4234414955301 439.8701470926128Q1070.6164916907467 428.1216637837195 1076.7665193383598 423.07478010877236Q1082.9441255852896 418.05547503314193 1099.2154991821135 418.05547503314193L1099.2154991821135 418.05547503314193Q1114.824986395338 418.05547503314193 1120.892278245001 422.99204431082245Q1126.9595700946643 427.92861358850297 1127.538720680314 439.2909965069631L1127.538720680314 439.2909965069631Q1127.538720680314 442.1867494352114 1127.4835634816807 445.90986034295935Q1127.4284062830475 449.66054985002387 1127.152620289881 452.47356698032223L1127.152620289881 452.47356698032223L1115.4041369809877 452.47356698032223Q1115.9005517686874 449.08139926437417 1115.845394570054 444.6964019730267Q1115.7902373714207 440.3389832809958 1115.5971871762042 437.91206654113057L1115.5971871762042 437.91206654113057Q1115.5144513782543 432.7824470682335 1112.067126463673 430.85194511606795Q1108.6198015490916 428.8938645645857 1099.2154991821135 428.8938645645857L1099.2154991821135 428.8938645645857Q1089.7284610171857 428.8938645645857 1086.2811361026043 430.85194511606795Q1082.833811188023 432.7824470682335 1082.44771079759 437.91206654113057L1082.44771079759 437.91206654113057Q1082.3373964003233 440.3389832809958 1082.1443462051066 441.9385420413616Q1081.95129600989 443.53810080172735 1082.0616104071566 446.3511179320257L1082.0616104071566 446.3511179320257Q1082.3373964003233 449.7432856479738 1083.082018581873 452.3632525830556Q1083.7990621641059 454.98321951813745 1086.3638719005544 456.69309267576983Q1088.9562602363194 458.3753872340855 1094.7477660928162 459.25790241221836L1094.7477660928162 459.25790241221836L1105.6137342235766 461.4917689568671Q1117.4449533304198 463.89110709741567 1122.8779373958 468.9931479709961Q1128.3109214611802 474.0951888445765 1128.3109214611802 484.3544277903706L1128.3109214611802 484.3544277903706Q1128.3109214611802 486.50555853706936 1128.255764262547 488.93247527693467Q1128.2006070639136 491.33181341748326 1128.007556868697 493.56567996213204L1128.007556868697 493.56567996213204Q1127.3456704850976 504.9280628805922 1120.892278245001 509.86463215827274Q1114.4388860049048 514.8012014359532 1098.3605626032975 514.8012014359532ZM1201.1184236571385 520.5375500938167L1201.1184236571385 523.9297178097647L1139.6457257803238 523.9297178097647L1139.6457257803238 520.5375500938167L1201.1184236571385 520.5375500938167ZM1249.022450670161 513.6429002646539L1249.022450670161 513.6429002646539L1215.0731949113638 513.6429002646539L1215.0731949113638 375.1983316950665L1249.4912868585443 375.1983316950665Q1267.5276908116339 375.1983316950665 1275.6357990107292 381.0174161508798Q1283.7163286105078 386.83650060669316 1284.0196932029912 400.29485707321874L1284.0196932029912 400.29485707321874Q1284.516107990691 416.0146586837098 1284.654000987274 430.1624801331517Q1284.7918939838573 444.3103015825936 1284.654000987274 458.48570163135213Q1284.516107990691 472.633523080794 1284.0196932029912 488.436060489235L1284.0196932029912 488.436060489235Q1283.7163286105078 501.9219955550772 1275.580641812096 507.76865861020724Q1267.444955013684 513.6429002646539 1249.022450670161 513.6429002646539ZM1249.4912868585443 387.60870138755934L1228.5591299772063 387.60870138755934L1228.5591299772063 501.232530572161L1249.022450670161 501.232530572161Q1260.3572549893047 501.232530572161 1265.4041386642518 498.4195134418626Q1270.451022339199 495.6064963115642 1270.5337581371489 489.8977262530175L1270.5337581371489 489.8977262530175Q1271.9954239009312 444.4206159798602 1270.5337581371489 398.75045551148634L1270.5337581371489 398.75045551148634Q1270.451022339199 393.0416854529396 1265.459295862885 390.3114041205912Q1260.467569386571 387.60870138755934 1249.4912868585443 387.60870138755934L1249.4912868585443 387.60870138755934ZM1322.7124680442523 514.8012014359532L1322.7124680442523 514.8012014359532Q1311.846499913492 514.8012014359532 1306.3583586494785 509.94736795622265Q1300.8977959847814 505.12111307580875 1300.8977959847814 493.95178035256515L1300.8977959847814 493.95178035256515L1300.8977959847814 419.29651200239124L1313.3081656772745 419.29651200239124L1313.3081656772745 495.02734572591453Q1313.3081656772745 499.77086480837846 1316.3142330027893 502.00473135302724Q1319.3203003283043 504.2385978976759 1326.1046357602004 504.2385978976759L1326.1046357602004 504.2385978976759Q1332.9717069900464 504.2385978976759 1338.1564836615769 501.9219955550772Q1343.3688389324236 499.57781461316193 1345.7681770729725 495.41344611634764L1345.7681770729725 495.41344611634764L1345.7681770729725 419.29651200239124L1358.371596960682 419.29651200239124L1358.371596960682 513.6429002646539L1345.7681770729725 513.6429002646539L1345.7681770729725 504.7350126853757L1343.175788737207 504.7350126853757Q1336.7499750964278 514.8012014359532 1322.7124680442523 514.8012014359532ZM1434.0196948862554 520.5375500938167L1434.0196948862554 523.9297178097647L1372.5469970094405 523.9297178097647L1372.5469970094405 520.5375500938167L1434.0196948862554 520.5375500938167ZM1481.2342569163616 514.9115158332198L1481.2342569163616 514.9115158332198Q1463.4736389564384 514.9115158332198 1455.834366945726 509.1751671753564Q1448.1675163356972 503.4663971168097 1447.6711015479975 490.2838266434506L1447.6711015479975 490.2838266434506Q1445.9336497910483 444.4206159798602 1447.6711015479975 398.55740531626975L1447.6711015479975 398.55740531626975Q1448.1675163356972 386.53313601420996 1455.9171027436762 380.2727939693302Q1463.666689151655 374.0124519244505 1481.041206721145 374.0124519244505L1481.041206721145 374.0124519244505Q1498.967296276968 374.0124519244505 1507.1581402740132 379.7488005823139Q1515.3489842710587 385.4575706408606 1515.7350846614918 398.6401411142197L1515.7350846614918 398.6401411142197Q1515.9281348567083 401.8392586349512 1515.9281348567083 406.5551991180985Q1515.9281348567083 411.24356100192915 1515.7902418601254 415.9595014850765Q1515.6523488635419 420.67544196822377 1515.5420344662753 423.9572952869052L1515.5420344662753 423.9572952869052L1502.0836779997496 423.9572952869052Q1502.2767281949662 417.6693746427088 1502.3043067942829 410.19557422789643Q1502.3594639929163 402.72177381308404 1502.0836779997496 396.43385316888765L1502.0836779997496 396.43385316888765Q1501.973363602483 390.61476871307434 1497.2850017186522 388.0775375759424Q1492.5690612355052 385.5678850381272 1481.041206721145 385.5678850381272L1481.041206721145 385.5678850381272Q1470.4786031828678 385.5678850381272 1465.955712894937 388.0775375759424Q1461.460401206323 390.61476871307434 1461.1570366138399 396.43385316888765L1461.1570366138399 396.43385316888765Q1459.6126350521074 444.4206159798602 1461.1570366138399 492.5176931880993L1461.1570366138399 492.5176931880993Q1461.460401206323 498.226463246646 1465.955712894937 500.7912729830946Q1470.4786031828678 503.3560827195431 1481.2342569163616 503.3560827195431L1481.2342569163616 503.3560827195431Q1493.3412620163713 503.3560827195431 1498.2502526947353 500.7912729830946Q1503.1316647737824 498.226463246646 1503.4350293662658 492.5176931880993L1503.4350293662658 492.5176931880993Q1503.710815359432 485.70577915688654 1503.4901865648987 477.90103555027434Q1503.2419791710493 470.09629194366215 1502.9386145785659 463.311956511766L1502.9386145785659 463.311956511766L1516.7003356375747 463.311956511766Q1517.1967504252746 470.09629194366215 1517.307064822541 476.742734378975Q1517.389800620491 483.38917681428785 1516.920964432108 490.2838266434506L1516.920964432108 490.2838266434506Q1516.3142352471416 503.4663971168097 1508.0406554521462 509.1751671753564Q1499.7394970578343 514.9115158332198 1481.2342569163616 514.9115158332198ZM1545.023557135775 437.4432303527475L1545.023557135775 513.6429002646539L1532.5304516453323 513.6429002646539L1532.5304516453323 387.8017515827759L1545.023557135775 387.8017515827759L1545.023557135775 428.1216637837195L1548.02962446129 428.1216637837195Q1551.421792177238 422.99204431082245 1555.9446824651689 420.50997037232383Q1560.439994153783 418.05547503314193 1568.2998949590285 418.05547503314193L1568.2998949590285 418.05547503314193Q1579.2485988877388 418.05547503314193 1584.5712685558526 422.8541513142392Q1589.921516823283 427.6528275953364 1589.921516823283 438.8773175172133L1589.921516823283 438.8773175172133L1589.921516823283 513.6429002646539L1577.5111471307898 513.6429002646539L1577.5111471307898 437.8293307431806Q1577.5111471307898 432.97549726345005 1574.4499226066416 430.79678791743464Q1571.3886980824934 428.61807857141923 1564.6043626505973 428.61807857141923L1564.6043626505973 428.61807857141923Q1550.0704408107222 428.61807857141923 1545.023557135775 437.4432303527475L1545.023557135775 437.4432303527475ZM1620.3682904688653 437.4432303527475L1620.3682904688653 513.6429002646539L1607.8476063791059 513.6429002646539L1607.8476063791059 419.29651200239124L1620.3682904688653 419.29651200239124L1620.3682904688653 428.1216637837195L1623.070993201897 428.1216637837195Q1625.608224339029 423.26783030398894 1629.7725928358434 420.67544196822377Q1633.9369613326576 418.05547503314193 1640.1421461789039 418.05547503314193L1640.1421461789039 418.05547503314193Q1649.4361341486153 418.05547503314193 1653.959024436546 422.93688711218914Q1658.4543361251601 427.845877790553 1658.4543361251601 439.8701470926128L1658.4543361251601 439.8701470926128Q1658.4543361251601 442.4901140276946 1658.2612859299436 446.0753319388592Q1658.068235734727 449.66054985002387 1657.682135344294 452.47356698032223L1657.682135344294 452.47356698032223L1645.6578660422342 452.47356698032223Q1645.8509162374507 451.48073740492276 1645.906073436084 449.08139926437417Q1645.9612306347174 446.65448252450886 1646.0163878333508 444.2275657846436Q1646.0439664326673 441.80064904477837 1646.0439664326673 440.9181338666455L1646.0439664326673 440.9181338666455Q1646.0439664326673 433.7476980443163 1643.6170496928019 431.18288830786776Q1641.2177115522534 428.61807857141923 1635.867463284823 428.61807857141923L1635.867463284823 428.61807857141923Q1624.5326589656795 428.61807857141923 1620.3682904688653 437.4432303527475L1620.3682904688653 437.4432303527475ZM1688.239223387143 387.8017515827759L1688.239223387143 401.7565228370013L1675.7185392973836 401.7565228370013L1675.7185392973836 387.8017515827759L1688.239223387143 387.8017515827759ZM1688.239223387143 419.29651200239124L1688.239223387143 513.6429002646539L1675.6358034994337 513.6429002646539L1675.6358034994337 419.29651200239124L1688.239223387143 419.29651200239124ZM1734.6815846363831 514.8012014359532L1734.6815846363831 514.8012014359532Q1719.0720974231588 514.8012014359532 1713.0048055734958 509.7543177610061Q1706.9375137238324 504.7350126853757 1706.4686775354496 493.28989396896554L1706.4686775354496 493.28989396896554Q1706.275627340233 490.2838266434506 1706.2204701415992 486.5331371363861Q1706.1653129429662 482.8100262286382 1706.5514133333993 479.9970090983398L1706.5514133333993 479.9970090983398L1717.8862176525429 479.9970090983398Q1717.6931674573264 484.4647421876372 1717.7483246559593 488.1878530953851Q1717.8034818545932 491.91096400313296 1717.8862176525429 494.5309309382148L1717.8862176525429 494.5309309382148Q1717.9965320498097 499.8811792056451 1721.6369071596075 501.9219955550772Q1725.2772822694053 503.93523330519275 1734.6815846363831 503.93523330519275L1734.6815846363831 503.93523330519275Q1744.2789371985775 503.93523330519275 1748.195098301542 501.9219955550772Q1752.1112594045064 499.8811792056451 1752.4146239969898 494.5309309382148L1752.4146239969898 494.5309309382148Q1752.7179885894727 491.24907761953335 1752.8007243874229 489.6495188591676Q1752.9110387846893 488.0499600988019 1752.8007243874229 485.0438927732869L1752.8007243874229 485.0438927732869Q1752.4973597949395 480.1073234956064 1750.1807574523407 477.37704216325795Q1747.8641551097423 474.6743394302262 1740.0869901024469 473.5160382589268L1740.0869901024469 473.5160382589268L1728.7521857833033 470.896071323845Q1720.0373483992414 469.0483051696294 1715.2662507174612 466.235288039331Q1710.5227316349972 463.42227090903265 1708.5922296828314 458.8993806211019Q1706.6617277306661 454.4040689324878 1706.275627340233 447.50941910332506L1706.275627340233 447.50941910332506Q1705.9722627477497 444.0345155894271 1706.7444635286158 439.8701470926128L1706.7444635286158 439.8701470926128Q1706.9375137238324 428.1216637837195 1713.0875413714455 423.07478010877236Q1719.2651476183753 418.05547503314193 1735.5365212151994 418.05547503314193L1735.5365212151994 418.05547503314193Q1751.1460084284238 418.05547503314193 1757.2133002780872 422.99204431082245Q1763.2805921277502 427.92861358850297 1763.8597427133998 439.2909965069631L1763.8597427133998 439.2909965069631Q1763.8597427133998 442.1867494352114 1763.8045855147664 445.90986034295935Q1763.749428316133 449.66054985002387 1763.4736423229667 452.47356698032223L1763.4736423229667 452.47356698032223L1751.7251590140734 452.47356698032223Q1752.2215738017733 449.08139926437417 1752.1664166031399 444.6964019730267Q1752.1112594045064 440.3389832809958 1751.91820920929 437.91206654113057L1751.91820920929 437.91206654113057Q1751.8354734113402 432.7824470682335 1748.3881484967585 430.85194511606795Q1744.9408235821772 428.8938645645857 1735.5365212151994 428.8938645645857L1735.5365212151994 428.8938645645857Q1726.0494830502714 428.8938645645857 1722.6021581356902 430.85194511606795Q1719.1548332211084 432.7824470682335 1718.7687328306754 437.91206654113057L1718.7687328306754 437.91206654113057Q1718.6859970327257 440.3389832809958 1718.4653682381925 441.9385420413616Q1718.272318042976 443.53810080172735 1718.3826324402428 446.3511179320257L1718.3826324402428 446.3511179320257Q1718.6859970327257 449.7432856479738 1719.4030406149589 452.3632525830556Q1720.1200841971915 454.98321951813745 1722.6848939336398 456.69309267576983Q1725.2772822694053 458.3753872340855 1731.0963667252188 459.25790241221836L1731.0963667252188 459.25790241221836L1741.9347562566625 461.4917689568671Q1753.7659753635055 463.89110709741567 1759.198959428886 468.9931479709961Q1764.631943494266 474.0951888445765 1764.631943494266 484.3544277903706L1764.631943494266 484.3544277903706Q1764.631943494266 486.50555853706936 1764.576786295633 488.93247527693467Q1764.5216290969995 491.33181341748326 1764.328578901783 493.56567996213204L1764.328578901783 493.56567996213204Q1763.6666925181833 504.9280628805922 1757.2133002780872 509.86463215827274Q1750.7599080379907 514.8012014359532 1734.6815846363831 514.8012014359532ZM1809.7229533769903 514.8012014359532L1809.7229533769903 514.8012014359532Q1794.5823023521486 514.8012014359532 1789.3147898826685 509.7543177610061Q1784.0196988138716 504.7350126853757 1784.0196988138716 493.28989396896554L1784.0196988138716 493.28989396896554L1784.0196988138716 430.1624801331517L1774.7257108441602 430.1624801331517L1774.7257108441602 419.29651200239124L1784.3230634063545 419.29651200239124L1784.3230634063545 392.54527066523985L1796.6231187015812 392.54527066523985L1796.6231187015812 419.29651200239124L1817.968954572669 419.29651200239124L1817.968954572669 430.1624801331517L1796.540382903631 430.1624801331517L1796.540382903631 494.6412453354814Q1796.540382903631 499.96391500359505 1798.746670848963 502.00473135302724Q1800.9805373936117 504.0455477024594 1809.9987393701565 504.0455477024594L1809.9987393701565 504.0455477024594Q1813.6942716785882 504.0455477024594 1815.6799308293869 503.9076547058761Q1817.6655899801856 503.7421831099762 1820.2855569152673 503.65944731202626L1820.2855569152673 503.65944731202626L1820.2855569152673 514.029000655087Q1817.968954572669 514.41510104552 1815.2386732403204 514.6081512407366Q1812.5359705072885 514.8012014359532 1809.7229533769903 514.8012014359532Z " fill="#f7f7f9" transform="matrix(0.4806937928528782,0,0,0.4806937928528782,0,84.20227912676735)"/></g></svg>